<svg xmlns="http://www.w3.org/2000/svg" width="25" height="18" viewBox="0 0 25 18">
  <g fill="none" fill-rule="evenodd">
    <path fill="#141827" d="M0,0.431057 L0,17.5689 C0,17.807 0.162753,18 0.363518,18 L17.6365,18 C17.8372,18 18,17.807 18,17.5689 L18,13.0039 L18.0005,13.0039 L18.0005,8.01562 L18,8.01562 L18,0.431057 C18,0.192991 17.8372,0 17.6365,0 L0.363518,0 C0.162753,0 0,0.192991 0,0.431057 Z M18,8.01562 L16.9855,8.01562 L16.9855,4.6875 L0.990723,4.6875 L0.990723,16.7571 L16.9855,16.7571 L16.9855,13.0039 L18,13.0039 L18,8.01562 Z M0.990723,1.23926 L16.9855,1.23926 L16.9855,3.55366 L0.990723,3.55366 L0.990723,1.23926 Z"/>
    <path stroke="#141827" stroke-linecap="round" stroke-linejoin="round" stroke-width="1.2" d="M22.918,10.5003 L9.2067,10.5002"/>
    <polyline stroke="#141827" stroke-linecap="round" stroke-linejoin="round" stroke-width="1.2" points="20.695 7.245 23.947 10.517 20.734 13.73"/>
  </g>
</svg>
